<svg width="1137" height="247" viewBox="0 0 1137 247" fill="none" xmlns="http://www.w3.org/2000/svg">
<rect x="6" y="4.99023" width="1120" height="233.278" fill="white"/>
<ellipse cx="36" cy="13.7222" rx="10" ry="13.7222" fill="#BDEBFF"/>
<ellipse cx="36" cy="13.7222" rx="10" ry="13.7222" fill="#BDEBFF"/>
<ellipse cx="36" cy="13.7222" rx="10" ry="13.7222" fill="#BDEBFF"/>
<ellipse cx="36" cy="123.5" rx="10" ry="13.7222" fill="#BDEBFF"/>
<ellipse cx="36" cy="123.5" rx="10" ry="13.7222" fill="#BDEBFF"/>
<ellipse cx="36" cy="123.5" rx="10" ry="13.7222" fill="#BDEBFF"/>
<ellipse cx="36" cy="150.945" rx="10" ry="13.7222" fill="#BDEBFF"/>
<ellipse cx="36" cy="150.945" rx="10" ry="13.7222" fill="#BDEBFF"/>
<ellipse cx="36" cy="150.945" rx="10" ry="13.7222" fill="#BDEBFF"/>
<ellipse cx="36" cy="178.389" rx="10" ry="13.7222" fill="#BDEBFF"/>
<ellipse cx="36" cy="178.389" rx="10" ry="13.7222" fill="#BDEBFF"/>
<ellipse cx="36" cy="178.389" rx="10" ry="13.7222" fill="#BDEBFF"/>
<ellipse cx="36" cy="205.834" rx="10" ry="13.7222" fill="#BDEBFF"/>
<ellipse cx="36" cy="205.834" rx="10" ry="13.7222" fill="#BDEBFF"/>
<ellipse cx="36" cy="205.834" rx="10" ry="13.7222" fill="#BDEBFF"/>
<ellipse cx="36" cy="233.278" rx="10" ry="13.7222" fill="#BDEBFF"/>
<ellipse cx="36" cy="233.278" rx="10" ry="13.7222" fill="#BDEBFF"/>
<ellipse cx="36" cy="233.278" rx="10" ry="13.7222" fill="#BDEBFF"/>
<ellipse cx="36" cy="41.1666" rx="10" ry="13.7222" fill="#BDEBFF"/>
<ellipse cx="36" cy="41.1666" rx="10" ry="13.7222" fill="#BDEBFF"/>
<ellipse cx="36" cy="41.1666" rx="10" ry="13.7222" fill="#BDEBFF"/>
<path d="M46 96.0552C46 103.634 41.5228 109.777 36 109.777C30.4772 109.777 26 103.634 26 96.0552C26 88.4767 30.4772 82.333 36 82.333C41.5228 82.333 46 88.4767 46 96.0552Z" fill="#BDEBFF"/>
<path d="M46 96.0552C46 103.634 41.5228 109.777 36 109.777C30.4772 109.777 26 103.634 26 96.0552C26 88.4767 30.4772 82.333 36 82.333C41.5228 82.333 46 88.4767 46 96.0552Z" fill="#BDEBFF"/>
<path d="M46 96.0552C46 103.634 41.5228 109.777 36 109.777C30.4772 109.777 26 103.634 26 96.0552C26 88.4767 30.4772 82.333 36 82.333C41.5228 82.333 46 88.4767 46 96.0552Z" fill="#BDEBFF"/>
<ellipse cx="36" cy="68.6109" rx="10" ry="13.7222" fill="#BDEBFF"/>
<ellipse cx="36" cy="68.6109" rx="10" ry="13.7222" fill="#BDEBFF"/>
<ellipse cx="36" cy="68.6109" rx="10" ry="13.7222" fill="#BDEBFF"/>
<ellipse cx="1097" cy="13.7222" rx="10" ry="13.7222" fill="#BDEBFF"/>
<ellipse cx="1097" cy="13.7222" rx="10" ry="13.7222" fill="#BDEBFF"/>
<ellipse cx="1097" cy="13.7222" rx="10" ry="13.7222" fill="#BDEBFF"/>
<ellipse cx="1097" cy="123.5" rx="10" ry="13.7222" fill="#BDEBFF"/>
<ellipse cx="1097" cy="123.5" rx="10" ry="13.7222" fill="#BDEBFF"/>
<ellipse cx="1097" cy="123.5" rx="10" ry="13.7222" fill="#BDEBFF"/>
<ellipse cx="1097" cy="150.945" rx="10" ry="13.7222" fill="#BDEBFF"/>
<ellipse cx="1097" cy="150.945" rx="10" ry="13.7222" fill="#BDEBFF"/>
<ellipse cx="1097" cy="150.945" rx="10" ry="13.7222" fill="#BDEBFF"/>
<ellipse cx="1097" cy="178.389" rx="10" ry="13.7222" fill="#BDEBFF"/>
<ellipse cx="1097" cy="178.389" rx="10" ry="13.7222" fill="#BDEBFF"/>
<ellipse cx="1097" cy="178.389" rx="10" ry="13.7222" fill="#BDEBFF"/>
<ellipse cx="1097" cy="205.834" rx="10" ry="13.7222" fill="#BDEBFF"/>
<ellipse cx="1097" cy="205.834" rx="10" ry="13.7222" fill="#BDEBFF"/>
<ellipse cx="1097" cy="205.834" rx="10" ry="13.7222" fill="#BDEBFF"/>
<ellipse cx="1097" cy="233.278" rx="10" ry="13.7222" fill="#BDEBFF"/>
<ellipse cx="1097" cy="233.278" rx="10" ry="13.7222" fill="#BDEBFF"/>
<ellipse cx="1097" cy="233.278" rx="10" ry="13.7222" fill="#BDEBFF"/>
<ellipse cx="1097" cy="41.1666" rx="10" ry="13.7222" fill="#BDEBFF"/>
<ellipse cx="1097" cy="41.1666" rx="10" ry="13.7222" fill="#BDEBFF"/>
<ellipse cx="1097" cy="41.1666" rx="10" ry="13.7222" fill="#BDEBFF"/>
<path d="M1107 96.0552C1107 103.634 1102.52 109.777 1097 109.777C1091.48 109.777 1087 103.634 1087 96.0552C1087 88.4767 1091.48 82.333 1097 82.333C1102.52 82.333 1107 88.4767 1107 96.0552Z" fill="#BDEBFF"/>
<path d="M1107 96.0552C1107 103.634 1102.52 109.777 1097 109.777C1091.48 109.777 1087 103.634 1087 96.0552C1087 88.4767 1091.48 82.333 1097 82.333C1102.52 82.333 1107 88.4767 1107 96.0552Z" fill="#BDEBFF"/>
<path d="M1107 96.0552C1107 103.634 1102.52 109.777 1097 109.777C1091.48 109.777 1087 103.634 1087 96.0552C1087 88.4767 1091.48 82.333 1097 82.333C1102.52 82.333 1107 88.4767 1107 96.0552Z" fill="#BDEBFF"/>
<ellipse cx="1097" cy="68.6109" rx="10" ry="13.7222" fill="#BDEBFF"/>
<ellipse cx="1097" cy="68.6109" rx="10" ry="13.7222" fill="#BDEBFF"/>
<ellipse cx="1097" cy="68.6109" rx="10" ry="13.7222" fill="#BDEBFF"/>
</svg>
